<mxfile host="app.diagrams.net" modified="2024-05-31T02:09:52.428Z" agent="Mozilla/5.0 (Windows NT 10.0; Win64; x64) AppleWebKit/537.36 (KHTML, like Gecko) Chrome/125.0.0.0 Safari/537.36" version="24.4.9" etag="QXomA7_9cxqsLHRg5qGp" type="github">
  <diagram name="PÃ¡gina-1" id="ntQvPDr1d3oY-3dvAQGr">
    <mxGraphModel>
      <root>
        <mxCell id="0" />
        <mxCell id="1" parent="0" />
      </root>
    </mxGraphModel>
  </diagram>
</mxfile>
